<svg xmlns="http://www.w3.org/2000/svg" xmlns:xlink="http://www.w3.org/1999/xlink" contentStyleType="text/css" height="2385px" preserveAspectRatio="none" style="width:2023px;height:2385px;background:#FCFCFC;" version="1.1" viewBox="0 0 2023 2385" width="2023px" zoomAndPan="magnify"><title>**Nurse Cancellation &amp; Reassignment** &#8212; Sequence Diagram</title><defs/><g><rect fill="#FCFCFC" height="2385" style="stroke:none;stroke-width:1;" width="2023" x="0" y="0"/><text fill="#000000" font-family="sans-serif" font-size="14" font-weight="bold" lengthAdjust="spacing" textLength="240.3994" x="813.4812" y="29.5332">Nurse Cancellation &amp; Reassignment</text><text fill="#000000" font-family="sans-serif" font-size="14" font-weight="bold" lengthAdjust="spacing" textLength="144.375" x="1057.7703" y="29.5332">&#8212; Sequence Diagram</text><rect fill="none" height="79.0547" style="stroke:#000000;stroke-width:1.5;" width="675.2878" x="707.9358" y="1189.4688"/><rect fill="none" height="380.2188" style="stroke:#000000;stroke-width:1.5;" width="1606.436" x="10" y="1583.6875"/><rect fill="none" height="213.4609" style="stroke:#000000;stroke-width:1.5;" width="1586.436" x="20" y="1743.4453"/><line style="stroke:#D4A017;stroke-width:0.5;stroke-dasharray:5.0,5.0;" x1="54" x2="54" y1="121.2188" y2="2303.4766"/><line style="stroke:#D4A017;stroke-width:0.5;stroke-dasharray:5.0,5.0;" x1="359.4817" x2="359.4817" y1="121.2188" y2="2303.4766"/><line style="stroke:#D4A017;stroke-width:0.5;stroke-dasharray:5.0,5.0;" x1="604.2637" x2="604.2637" y1="121.2188" y2="2303.4766"/><line style="stroke:#D4A017;stroke-width:0.5;stroke-dasharray:5.0,5.0;" x1="747.9358" x2="747.9358" y1="121.2188" y2="2303.4766"/><line style="stroke:#D4A017;stroke-width:0.5;stroke-dasharray:5.0,5.0;" x1="1023.8518" x2="1023.8518" y1="121.2188" y2="2303.4766"/><line style="stroke:#D4A017;stroke-width:0.5;stroke-dasharray:5.0,5.0;" x1="1173.916" x2="1173.916" y1="121.2188" y2="2303.4766"/><line style="stroke:#D4A017;stroke-width:0.5;stroke-dasharray:5.0,5.0;" x1="1334.8037" x2="1334.8037" y1="121.2188" y2="2303.4766"/><line style="stroke:#D4A017;stroke-width:0.5;stroke-dasharray:5.0,5.0;" x1="1551.7271" x2="1551.7271" y1="121.2188" y2="2303.4766"/><line style="stroke:#D4A017;stroke-width:0.5;stroke-dasharray:5.0,5.0;" x1="1769.989" x2="1769.989" y1="121.2188" y2="2303.4766"/><line style="stroke:#D4A017;stroke-width:0.5;stroke-dasharray:5.0,5.0;" x1="1824.719" x2="1824.719" y1="121.2188" y2="2303.4766"/><text fill="#D4A017" font-family="sans-serif" font-size="14" lengthAdjust="spacing" textLength="43.5859" x="30" y="118.1426">Patient</text><ellipse cx="54.793" cy="52.1094" fill="#E2E2F0" rx="8" ry="8" style="stroke:#D4A017;stroke-width:0.5;"/><path d="M54.793,60.1094 L54.793,87.1094 M41.793,68.1094 L67.793,68.1094 M54.793,87.1094 L41.793,102.1094 M54.793,87.1094 L67.793,102.1094 " fill="none" style="stroke:#D4A017;stroke-width:0.5;"/><text fill="#D4A017" font-family="sans-serif" font-size="14" lengthAdjust="spacing" textLength="43.5859" x="30" y="2317.0098">Patient</text><ellipse cx="54.793" cy="2328.5859" fill="#E2E2F0" rx="8" ry="8" style="stroke:#D4A017;stroke-width:0.5;"/><path d="M54.793,2336.5859 L54.793,2363.5859 M41.793,2344.5859 L67.793,2344.5859 M54.793,2363.5859 L41.793,2378.5859 M54.793,2363.5859 L67.793,2378.5859 " fill="none" style="stroke:#D4A017;stroke-width:0.5;"/><rect fill="#E2E2F0" height="30.3516" rx="2.5" ry="2.5" style="stroke:#D4A017;stroke-width:0.5;" width="81.2153" x="319.4817" y="89.8672"/><text fill="#D4A017" font-family="sans-serif" font-size="13" lengthAdjust="spacing" textLength="67.2153" x="326.4817" y="110.3623">Patient App</text><rect fill="#E2E2F0" height="30.3516" rx="2.5" ry="2.5" style="stroke:#D4A017;stroke-width:0.5;" width="81.2153" x="319.4817" y="2302.4766"/><text fill="#D4A017" font-family="sans-serif" font-size="13" lengthAdjust="spacing" textLength="67.2153" x="326.4817" y="2322.9717">Patient App</text><rect fill="#E2E2F0" height="30.3516" rx="2.5" ry="2.5" style="stroke:#D4A017;stroke-width:0.5;" width="89.8672" x="560.2637" y="89.8672"/><text fill="#D4A017" font-family="sans-serif" font-size="13" lengthAdjust="spacing" textLength="75.8672" x="567.2637" y="110.3623">API Gateway</text><rect fill="#E2E2F0" height="30.3516" rx="2.5" ry="2.5" style="stroke:#D4A017;stroke-width:0.5;" width="89.8672" x="560.2637" y="2302.4766"/><text fill="#D4A017" font-family="sans-serif" font-size="13" lengthAdjust="spacing" textLength="75.8672" x="567.2637" y="2322.9717">API Gateway</text><rect fill="#E2E2F0" height="46.7031" rx="2.5" ry="2.5" style="stroke:#D4A017;stroke-width:0.5;" width="60.979" x="717.9358" y="73.5156"/><text fill="#D4A017" font-family="sans-serif" font-size="13" lengthAdjust="spacing" textLength="46.979" x="724.9358" y="94.0107">Booking</text><text fill="#D4A017" font-family="sans-serif" font-size="13" lengthAdjust="spacing" textLength="43.3481" x="726.7512" y="110.3623">Service</text><rect fill="#E2E2F0" height="46.7031" rx="2.5" ry="2.5" style="stroke:#D4A017;stroke-width:0.5;" width="60.979" x="717.9358" y="2302.4766"/><text fill="#D4A017" font-family="sans-serif" font-size="13" lengthAdjust="spacing" textLength="46.979" x="724.9358" y="2322.9717">Booking</text><text fill="#D4A017" font-family="sans-serif" font-size="13" lengthAdjust="spacing" textLength="43.3481" x="726.7512" y="2339.3232">Service</text><rect fill="#E2E2F0" height="46.7031" rx="2.5" ry="2.5" style="stroke:#D4A017;stroke-width:0.5;" width="78.3081" x="984.8518" y="73.5156"/><text fill="#D4A017" font-family="sans-serif" font-size="13" lengthAdjust="spacing" textLength="64.3081" x="991.8518" y="94.0107">Notification</text><text fill="#D4A017" font-family="sans-serif" font-size="13" lengthAdjust="spacing" textLength="43.3481" x="1002.3318" y="110.3623">Service</text><rect fill="#E2E2F0" height="46.7031" rx="2.5" ry="2.5" style="stroke:#D4A017;stroke-width:0.5;" width="78.3081" x="984.8518" y="2302.4766"/><text fill="#D4A017" font-family="sans-serif" font-size="13" lengthAdjust="spacing" textLength="64.3081" x="991.8518" y="2322.9717">Notification</text><text fill="#D4A017" font-family="sans-serif" font-size="13" lengthAdjust="spacing" textLength="43.3481" x="1002.3318" y="2339.3232">Service</text><text fill="#D4A017" font-family="sans-serif" font-size="14" lengthAdjust="spacing" textLength="37.3447" x="1152.916" y="118.1426">Nurse</text><ellipse cx="1174.5884" cy="52.1094" fill="#E2E2F0" rx="8" ry="8" style="stroke:#D4A017;stroke-width:0.5;"/><path d="M1174.5884,60.1094 L1174.5884,87.1094 M1161.5884,68.1094 L1187.5884,68.1094 M1174.5884,87.1094 L1161.5884,102.1094 M1174.5884,87.1094 L1187.5884,102.1094 " fill="none" style="stroke:#D4A017;stroke-width:0.5;"/><text fill="#D4A017" font-family="sans-serif" font-size="14" lengthAdjust="spacing" textLength="37.3447" x="1152.916" y="2317.0098">Nurse</text><ellipse cx="1174.5884" cy="2328.5859" fill="#E2E2F0" rx="8" ry="8" style="stroke:#D4A017;stroke-width:0.5;"/><path d="M1174.5884,2336.5859 L1174.5884,2363.5859 M1161.5884,2344.5859 L1187.5884,2344.5859 M1174.5884,2363.5859 L1161.5884,2378.5859 M1174.5884,2363.5859 L1187.5884,2378.5859 " fill="none" style="stroke:#D4A017;stroke-width:0.5;"/><rect fill="#E2E2F0" height="30.3516" rx="2.5" ry="2.5" style="stroke:#D4A017;stroke-width:0.5;" width="75.4199" x="1297.8037" y="89.8672"/><text fill="#D4A017" font-family="sans-serif" font-size="13" lengthAdjust="spacing" textLength="61.4199" x="1304.8037" y="110.3623">Nurse App</text><rect fill="#E2E2F0" height="30.3516" rx="2.5" ry="2.5" style="stroke:#D4A017;stroke-width:0.5;" width="75.4199" x="1297.8037" y="2302.4766"/><text fill="#D4A017" font-family="sans-serif" font-size="13" lengthAdjust="spacing" textLength="61.4199" x="1304.8037" y="2322.9717">Nurse App</text><rect fill="#E2E2F0" height="30.3516" rx="2.5" ry="2.5" style="stroke:#D4A017;stroke-width:0.5;" width="87.709" x="1508.7271" y="89.8672"/><text fill="#D4A017" font-family="sans-serif" font-size="13" lengthAdjust="spacing" textLength="73.709" x="1515.7271" y="110.3623">Admin Panel</text><rect fill="#E2E2F0" height="30.3516" rx="2.5" ry="2.5" style="stroke:#D4A017;stroke-width:0.5;" width="87.709" x="1508.7271" y="2302.4766"/><text fill="#D4A017" font-family="sans-serif" font-size="13" lengthAdjust="spacing" textLength="73.709" x="1515.7271" y="2322.9717">Admin Panel</text><rect fill="#E2E2F0" height="30.3516" rx="2.5" ry="2.5" style="stroke:#D4A017;stroke-width:0.5;" width="40.73" x="1749.989" y="89.8672"/><text fill="#D4A017" font-family="sans-serif" font-size="13" lengthAdjust="spacing" textLength="26.73" x="1756.989" y="110.3623">LOC</text><rect fill="#E2E2F0" height="30.3516" rx="2.5" ry="2.5" style="stroke:#D4A017;stroke-width:0.5;" width="40.73" x="1749.989" y="2302.4766"/><text fill="#D4A017" font-family="sans-serif" font-size="13" lengthAdjust="spacing" textLength="26.73" x="1756.989" y="2322.9717">LOC</text><rect fill="#E2E2F0" height="30.3516" rx="2.5" ry="2.5" style="stroke:#D4A017;stroke-width:0.5;" width="49.3945" x="1800.719" y="89.8672"/><text fill="#D4A017" font-family="sans-serif" font-size="13" lengthAdjust="spacing" textLength="35.3945" x="1807.719" y="110.3623">NUR2</text><rect fill="#E2E2F0" height="30.3516" rx="2.5" ry="2.5" style="stroke:#D4A017;stroke-width:0.5;" width="49.3945" x="1800.719" y="2302.4766"/><text fill="#D4A017" font-family="sans-serif" font-size="13" lengthAdjust="spacing" textLength="35.3945" x="1807.719" y="2322.9717">NUR2</text><rect fill="#EEEEEE" height="3" style="stroke:#EEEEEE;stroke-width:1;" width="2016.6265" x="0" y="152.3945"/><line style="stroke:#000000;stroke-width:1;" x1="0" x2="2016.6265" y1="152.3945" y2="152.3945"/><line style="stroke:#000000;stroke-width:1;" x1="0" x2="2016.6265" y1="155.3945" y2="155.3945"/><rect fill="#EEEEEE" height="24.3516" style="stroke:#000000;stroke-width:2;" width="206.1118" x="905.2573" y="141.2188"/><text fill="#000000" font-family="sans-serif" font-size="13" font-weight="bold" lengthAdjust="spacing" textLength="188.5" x="911.2573" y="158.7139">Pre-Condition: Active Booking</text><rect fill="#EEEEEE" height="3" style="stroke:#EEEEEE;stroke-width:1;" width="2016.6265" x="0" y="196.7461"/><line style="stroke:#000000;stroke-width:1;" x1="0" x2="2016.6265" y1="196.7461" y2="196.7461"/><line style="stroke:#000000;stroke-width:1;" x1="0" x2="2016.6265" y1="199.7461" y2="199.7461"/><rect fill="#EEEEEE" height="24.3516" style="stroke:#000000;stroke-width:2;" width="188.1035" x="914.2615" y="185.5703"/><text fill="#000000" font-family="sans-serif" font-size="13" font-weight="bold" lengthAdjust="spacing" textLength="170.4917" x="920.2615" y="203.0654">Nurse Initiates Cancellation</text><polygon fill="#555555" points="1323.5137,238.2734,1333.5137,242.2734,1323.5137,246.2734,1327.5137,242.2734" style="stroke:#555555;stroke-width:1;"/><line style="stroke:#555555;stroke-width:1;" x1="1174.5884" x2="1329.5137" y1="242.2734" y2="242.2734"/><text fill="#000000" font-family="sans-serif" font-size="13" lengthAdjust="spacing" textLength="126.2993" x="1181.5884" y="237.417">Tap "Cancel Booking"</text><line style="stroke:#555555;stroke-width:1;" x1="1335.5137" x2="1377.5137" y1="334.5313" y2="334.5313"/><line style="stroke:#555555;stroke-width:1;" x1="1377.5137" x2="1377.5137" y1="334.5313" y2="347.5313"/><line style="stroke:#555555;stroke-width:1;" x1="1336.5137" x2="1377.5137" y1="347.5313" y2="347.5313"/><polygon fill="#555555" points="1346.5137,343.5313,1336.5137,347.5313,1346.5137,351.5313,1342.5137,347.5313" style="stroke:#555555;stroke-width:1;"/><text fill="#000000" font-family="sans-serif" font-size="13" lengthAdjust="spacing" textLength="203.0679" x="1342.5137" y="329.6748">Show cancellation reason selection</text><path d="M1557.0679,255.2734 L1557.0679,412.2734 L1785.0679,412.2734 L1785.0679,265.2734 L1775.0679,255.2734 L1557.0679,255.2734 " fill="#FFFCE8" style="stroke:#D4A017;stroke-width:0.5;"/><path d="M1775.0679,255.2734 L1775.0679,265.2734 L1785.0679,265.2734 L1775.0679,255.2734 " fill="#FFFCE8" style="stroke:#D4A017;stroke-width:0.5;"/><text fill="#000000" font-family="sans-serif" font-size="13" lengthAdjust="spacing" textLength="154.6479" x="1563.0679" y="273.7686">Required reason selection:</text><text fill="#000000" font-family="sans-serif" font-size="13" lengthAdjust="spacing" textLength="207.1938" x="1563.0679" y="290.1201">1. &#1591;&#1575;&#1585;&#1574; &#1588;&#1582;&#1589;&#1610; (Personal emergency)</text><text fill="#000000" font-family="sans-serif" font-size="13" lengthAdjust="spacing" textLength="109.9922" x="1563.0679" y="306.4717">2. &#1575;&#1604;&#1605;&#1587;&#1575;&#1601;&#1577; &#1571;&#1576;&#1593;&#1583; &#1605;&#1606; &#1575;&#1604;&#1605;&#1578;&#1608;&#1602;&#1593;</text><text fill="#000000" font-family="sans-serif" font-size="13" lengthAdjust="spacing" textLength="98.2744" x="1573.9033" y="322.8232">(Location too far)</text><text fill="#000000" font-family="sans-serif" font-size="13" lengthAdjust="spacing" textLength="111.5854" x="1563.0679" y="339.1748">3. &#1575;&#1604;&#1582;&#1583;&#1605;&#1577; &#1582;&#1575;&#1585;&#1580; &#1578;&#1582;&#1589;&#1589;&#1610;</text><text fill="#000000" font-family="sans-serif" font-size="13" lengthAdjust="spacing" textLength="156.0571" x="1573.9033" y="355.5264">(Outside my specialization)</text><text fill="#000000" font-family="sans-serif" font-size="13" lengthAdjust="spacing" textLength="104.4126" x="1563.0679" y="371.8779">4. &#1605;&#1588;&#1603;&#1604;&#1577; &#1601;&#1610; &#1575;&#1604;&#1605;&#1608;&#1575;&#1589;&#1604;&#1575;&#1578;</text><text fill="#000000" font-family="sans-serif" font-size="13" lengthAdjust="spacing" textLength="126.439" x="1573.9033" y="388.2295">(Transportation issue)</text><text fill="#000000" font-family="sans-serif" font-size="13" lengthAdjust="spacing" textLength="150.6553" x="1563.0679" y="404.5811">5. &#1571;&#1582;&#1585;&#1609; (Other &#8212; free text)</text><polygon fill="#555555" points="1323.5137,435.7891,1333.5137,439.7891,1323.5137,443.7891,1327.5137,439.7891" style="stroke:#555555;stroke-width:1;"/><line style="stroke:#555555;stroke-width:1;" x1="1174.5884" x2="1329.5137" y1="439.7891" y2="439.7891"/><text fill="#000000" font-family="sans-serif" font-size="13" lengthAdjust="spacing" textLength="136.9253" x="1181.5884" y="434.9326">Select reason + confirm</text><polygon fill="#555555" points="616.1973,466.1406,606.1973,470.1406,616.1973,474.1406,612.1973,470.1406" style="stroke:#555555;stroke-width:1;"/><line style="stroke:#555555;stroke-width:1;" x1="610.1973" x2="1334.5137" y1="470.1406" y2="470.1406"/><text fill="#000000" font-family="sans-serif" font-size="13" lengthAdjust="spacing" textLength="232.6924" x="622.1973" y="465.2842">POST /api/v1/nurse/bookings/{id}/cancel</text><polygon fill="#555555" points="736.4253,496.4922,746.4253,500.4922,736.4253,504.4922,740.4253,500.4922" style="stroke:#555555;stroke-width:1;"/><line style="stroke:#555555;stroke-width:1;" x1="605.1973" x2="742.4253" y1="500.4922" y2="500.4922"/><text fill="#000000" font-family="sans-serif" font-size="13" lengthAdjust="spacing" textLength="119.228" x="612.1973" y="495.6357">Process cancellation</text><line style="stroke:#555555;stroke-width:1;" x1="748.4253" x2="790.4253" y1="530.8438" y2="530.8438"/><line style="stroke:#555555;stroke-width:1;" x1="790.4253" x2="790.4253" y1="530.8438" y2="543.8438"/><line style="stroke:#555555;stroke-width:1;" x1="749.4253" x2="790.4253" y1="543.8438" y2="543.8438"/><polygon fill="#555555" points="759.4253,539.8438,749.4253,543.8438,759.4253,547.8438,755.4253,543.8438" style="stroke:#555555;stroke-width:1;"/><text fill="#000000" font-family="sans-serif" font-size="13" lengthAdjust="spacing" textLength="231.2578" x="755.4253" y="525.9873">Validate booking is cancellable by nurse</text><line style="stroke:#555555;stroke-width:1;" x1="748.4253" x2="790.4253" y1="574.1953" y2="574.1953"/><line style="stroke:#555555;stroke-width:1;" x1="790.4253" x2="790.4253" y1="574.1953" y2="587.1953"/><line style="stroke:#555555;stroke-width:1;" x1="749.4253" x2="790.4253" y1="587.1953" y2="587.1953"/><polygon fill="#555555" points="759.4253,583.1953,749.4253,587.1953,759.4253,591.1953,755.4253,587.1953" style="stroke:#555555;stroke-width:1;"/><text fill="#000000" font-family="sans-serif" font-size="13" lengthAdjust="spacing" textLength="227.957" x="755.4253" y="569.3389">Set status = CANCELLED_BY_NURSE</text><line style="stroke:#555555;stroke-width:1;" x1="748.4253" x2="790.4253" y1="617.5469" y2="617.5469"/><line style="stroke:#555555;stroke-width:1;" x1="790.4253" x2="790.4253" y1="617.5469" y2="630.5469"/><line style="stroke:#555555;stroke-width:1;" x1="749.4253" x2="790.4253" y1="630.5469" y2="630.5469"/><polygon fill="#555555" points="759.4253,626.5469,749.4253,630.5469,759.4253,634.5469,755.4253,630.5469" style="stroke:#555555;stroke-width:1;"/><text fill="#000000" font-family="sans-serif" font-size="13" lengthAdjust="spacing" textLength="150.3188" x="755.4253" y="612.6904">Store cancellation_reason</text><line style="stroke:#555555;stroke-width:1;" x1="748.4253" x2="790.4253" y1="660.8984" y2="660.8984"/><line style="stroke:#555555;stroke-width:1;" x1="790.4253" x2="790.4253" y1="660.8984" y2="673.8984"/><line style="stroke:#555555;stroke-width:1;" x1="749.4253" x2="790.4253" y1="673.8984" y2="673.8984"/><polygon fill="#555555" points="759.4253,669.8984,749.4253,673.8984,759.4253,677.8984,755.4253,673.8984" style="stroke:#555555;stroke-width:1;"/><text fill="#000000" font-family="sans-serif" font-size="13" lengthAdjust="spacing" textLength="175.2524" x="755.4253" y="656.042">Store cancelled_by = nurse_id</text><line style="stroke:#555555;stroke-width:1;" x1="748.4253" x2="790.4253" y1="704.25" y2="704.25"/><line style="stroke:#555555;stroke-width:1;" x1="790.4253" x2="790.4253" y1="704.25" y2="717.25"/><line style="stroke:#555555;stroke-width:1;" x1="749.4253" x2="790.4253" y1="717.25" y2="717.25"/><polygon fill="#555555" points="759.4253,713.25,749.4253,717.25,759.4253,721.25,755.4253,717.25" style="stroke:#555555;stroke-width:1;"/><text fill="#000000" font-family="sans-serif" font-size="13" lengthAdjust="spacing" textLength="134.7861" x="755.4253" y="699.3936">Set cancelled_at = now</text><line style="stroke:#555555;stroke-width:1;" x1="748.4253" x2="790.4253" y1="747.6016" y2="747.6016"/><line style="stroke:#555555;stroke-width:1;" x1="790.4253" x2="790.4253" y1="747.6016" y2="760.6016"/><line style="stroke:#555555;stroke-width:1;" x1="749.4253" x2="790.4253" y1="760.6016" y2="760.6016"/><polygon fill="#555555" points="759.4253,756.6016,749.4253,760.6016,759.4253,764.6016,755.4253,760.6016" style="stroke:#555555;stroke-width:1;"/><text fill="#000000" font-family="sans-serif" font-size="13" lengthAdjust="spacing" textLength="213.1733" x="755.4253" y="742.7451">Increment nurse cancellation counter</text><rect fill="#EEEEEE" height="3" style="stroke:#EEEEEE;stroke-width:1;" width="2016.6265" x="0" y="789.7773"/><line style="stroke:#000000;stroke-width:1;" x1="0" x2="2016.6265" y1="789.7773" y2="789.7773"/><line style="stroke:#000000;stroke-width:1;" x1="0" x2="2016.6265" y1="792.7773" y2="792.7773"/><rect fill="#EEEEEE" height="24.3516" style="stroke:#000000;stroke-width:2;" width="136.0591" x="940.2837" y="778.6016"/><text fill="#000000" font-family="sans-serif" font-size="13" font-weight="bold" lengthAdjust="spacing" textLength="118.4473" x="946.2837" y="796.0967">Patient Notification</text><polygon fill="#555555" points="1012.0059,831.3047,1022.0059,835.3047,1012.0059,839.3047,1016.0059,835.3047" style="stroke:#555555;stroke-width:1;"/><line style="stroke:#555555;stroke-width:1;" x1="748.4253" x2="1018.0059" y1="835.3047" y2="835.3047"/><text fill="#000000" font-family="sans-serif" font-size="13" lengthAdjust="spacing" textLength="189.1729" x="755.4253" y="830.4482">Push "Your nurse has cancelled"</text><line style="stroke:#555555;stroke-width:1;" x1="1024.0059" x2="1066.0059" y1="865.6563" y2="865.6563"/><line style="stroke:#555555;stroke-width:1;" x1="1066.0059" x2="1066.0059" y1="865.6563" y2="878.6563"/><line style="stroke:#555555;stroke-width:1;" x1="1025.0059" x2="1066.0059" y1="878.6563" y2="878.6563"/><polygon fill="#555555" points="1035.0059,874.6563,1025.0059,878.6563,1035.0059,882.6563,1031.0059,878.6563" style="stroke:#555555;stroke-width:1;"/><text fill="#000000" font-family="sans-serif" font-size="13" lengthAdjust="spacing" textLength="136.5825" x="1031.0059" y="860.7998">Urgent push notification</text><polygon fill="#555555" points="371.0894,905.0078,361.0894,909.0078,371.0894,913.0078,367.0894,909.0078" style="stroke:#555555;stroke-width:1;"/><line style="stroke:#555555;stroke-width:1;stroke-dasharray:2.0,2.0;" x1="365.0894" x2="1023.0059" y1="909.0078" y2="909.0078"/><text fill="#000000" font-family="sans-serif" font-size="13" lengthAdjust="spacing" textLength="239.0146" x="377.0894" y="904.1514">"Nurse cancelled &#8212; finding new provider"</text><polygon fill="#555555" points="65.793,935.3594,55.793,939.3594,65.793,943.3594,61.793,939.3594" style="stroke:#555555;stroke-width:1;"/><line style="stroke:#555555;stroke-width:1;stroke-dasharray:2.0,2.0;" x1="59.793" x2="359.0894" y1="939.3594" y2="939.3594"/><text fill="#000000" font-family="sans-serif" font-size="13" lengthAdjust="spacing" textLength="281.2964" x="71.793" y="934.5029">Show cancellation alert + "Finding alternatives..."</text><rect fill="#EEEEEE" height="3" style="stroke:#EEEEEE;stroke-width:1;" width="2016.6265" x="0" y="968.5352"/><line style="stroke:#000000;stroke-width:1;" x1="0" x2="2016.6265" y1="968.5352" y2="968.5352"/><line style="stroke:#000000;stroke-width:1;" x1="0" x2="2016.6265" y1="971.5352" y2="971.5352"/><rect fill="#EEEEEE" height="24.3516" style="stroke:#000000;stroke-width:2;" width="139.6899" x="938.4683" y="957.3594"/><text fill="#000000" font-family="sans-serif" font-size="13" font-weight="bold" lengthAdjust="spacing" textLength="122.0781" x="944.4683" y="974.8545">Reassignment Flow</text><line style="stroke:#555555;stroke-width:1;" x1="748.4253" x2="790.4253" y1="1014.0625" y2="1014.0625"/><line style="stroke:#555555;stroke-width:1;" x1="790.4253" x2="790.4253" y1="1014.0625" y2="1027.0625"/><line style="stroke:#555555;stroke-width:1;" x1="749.4253" x2="790.4253" y1="1027.0625" y2="1027.0625"/><polygon fill="#555555" points="759.4253,1023.0625,749.4253,1027.0625,759.4253,1031.0625,755.4253,1027.0625" style="stroke:#555555;stroke-width:1;"/><text fill="#000000" font-family="sans-serif" font-size="13" lengthAdjust="spacing" textLength="177.7534" x="755.4253" y="1009.2061">Check original ServiceRequest</text><line style="stroke:#555555;stroke-width:1;" x1="748.4253" x2="790.4253" y1="1057.4141" y2="1057.4141"/><line style="stroke:#555555;stroke-width:1;" x1="790.4253" x2="790.4253" y1="1057.4141" y2="1070.4141"/><line style="stroke:#555555;stroke-width:1;" x1="749.4253" x2="790.4253" y1="1070.4141" y2="1070.4141"/><polygon fill="#555555" points="759.4253,1066.4141,749.4253,1070.4141,759.4253,1074.4141,755.4253,1070.4141" style="stroke:#555555;stroke-width:1;"/><text fill="#000000" font-family="sans-serif" font-size="13" lengthAdjust="spacing" textLength="218.1816" x="755.4253" y="1052.5576">Reset request to PENDING_OFFERS</text><line style="stroke:#555555;stroke-width:1;" x1="748.4253" x2="790.4253" y1="1100.7656" y2="1100.7656"/><line style="stroke:#555555;stroke-width:1;" x1="790.4253" x2="790.4253" y1="1100.7656" y2="1113.7656"/><line style="stroke:#555555;stroke-width:1;" x1="749.4253" x2="790.4253" y1="1113.7656" y2="1113.7656"/><polygon fill="#555555" points="759.4253,1109.7656,749.4253,1113.7656,759.4253,1117.7656,755.4253,1113.7656" style="stroke:#555555;stroke-width:1;"/><text fill="#000000" font-family="sans-serif" font-size="13" lengthAdjust="spacing" textLength="261.5806" x="755.4253" y="1095.9092">Exclude cancelling nurse from new broadcast</text><polygon fill="#555555" points="1758.354,1140.1172,1768.354,1144.1172,1758.354,1148.1172,1762.354,1144.1172" style="stroke:#555555;stroke-width:1;"/><line style="stroke:#555555;stroke-width:1;" x1="748.4253" x2="1764.354" y1="1144.1172" y2="1144.1172"/><text fill="#000000" font-family="sans-serif" font-size="13" lengthAdjust="spacing" textLength="234.1143" x="755.4253" y="1139.2607">Find nearby nurses (excluding canceller)</text><polygon fill="#555555" points="759.4253,1170.4688,749.4253,1174.4688,759.4253,1178.4688,755.4253,1174.4688" style="stroke:#555555;stroke-width:1;"/><line style="stroke:#555555;stroke-width:1;stroke-dasharray:2.0,2.0;" x1="753.4253" x2="1769.354" y1="1174.4688" y2="1174.4688"/><text fill="#000000" font-family="sans-serif" font-size="13" lengthAdjust="spacing" textLength="132.2407" x="765.4253" y="1169.6123">List of available nurses</text><path d="M707.9358,1189.4688 L780.3704,1189.4688 L780.3704,1197.8203 L770.3704,1207.8203 L707.9358,1207.8203 L707.9358,1189.4688 " fill="#EEEEEE" style="stroke:#000000;stroke-width:1.5;"/><rect fill="none" height="79.0547" style="stroke:#000000;stroke-width:1.5;" width="675.2878" x="707.9358" y="1189.4688"/><text fill="#000000" font-family="sans-serif" font-size="13" font-weight="bold" lengthAdjust="spacing" textLength="27.4346" x="722.9358" y="1203.9639">loop</text><text fill="#000000" font-family="sans-serif" font-size="11" font-weight="bold" lengthAdjust="spacing" textLength="135.7168" x="795.3704" y="1202.8877">[For each available nurse]</text><polygon fill="#555555" points="1012.0059,1226.1719,1022.0059,1230.1719,1012.0059,1234.1719,1016.0059,1230.1719" style="stroke:#555555;stroke-width:1;"/><line style="stroke:#555555;stroke-width:1;" x1="748.4253" x2="1018.0059" y1="1230.1719" y2="1230.1719"/><text fill="#000000" font-family="sans-serif" font-size="13" lengthAdjust="spacing" textLength="209.4092" x="755.4253" y="1225.3154">Send push "New Request Available"</text><polygon fill="#555555" points="1323.5137,1256.5234,1333.5137,1260.5234,1323.5137,1264.5234,1327.5137,1260.5234" style="stroke:#555555;stroke-width:1;"/><line style="stroke:#555555;stroke-width:1;stroke-dasharray:2.0,2.0;" x1="1024.0059" x2="1329.5137" y1="1260.5234" y2="1260.5234"/><text fill="#000000" font-family="sans-serif" font-size="13" lengthAdjust="spacing" textLength="162.5825" x="1031.0059" y="1255.667">Re-broadcast to new nurses</text><rect fill="#EEEEEE" height="3" style="stroke:#EEEEEE;stroke-width:1;" width="2016.6265" x="0" y="1296.6992"/><line style="stroke:#000000;stroke-width:1;" x1="0" x2="2016.6265" y1="1296.6992" y2="1296.6992"/><line style="stroke:#000000;stroke-width:1;" x1="0" x2="2016.6265" y1="1299.6992" y2="1299.6992"/><rect fill="#EEEEEE" height="24.3516" style="stroke:#000000;stroke-width:2;" width="124.5444" x="946.041" y="1285.5234"/><text fill="#000000" font-family="sans-serif" font-size="13" font-weight="bold" lengthAdjust="spacing" textLength="106.9326" x="952.041" y="1303.0186">New Offers Cycle</text><polygon fill="#555555" points="65.793,1338.2266,55.793,1342.2266,65.793,1346.2266,61.793,1342.2266" style="stroke:#555555;stroke-width:1;"/><line style="stroke:#555555;stroke-width:1;stroke-dasharray:2.0,2.0;" x1="59.793" x2="359.0894" y1="1342.2266" y2="1342.2266"/><text fill="#000000" font-family="sans-serif" font-size="13" lengthAdjust="spacing" textLength="163.8457" x="71.793" y="1337.3701">"New offers are coming in..."</text><polygon fill="#555555" points="759.4253,1368.5781,749.4253,1372.5781,759.4253,1376.5781,755.4253,1372.5781" style="stroke:#555555;stroke-width:1;"/><line style="stroke:#555555;stroke-width:1;" x1="753.4253" x2="1824.4163" y1="1372.5781" y2="1372.5781"/><text fill="#000000" font-family="sans-serif" font-size="13" lengthAdjust="spacing" textLength="97.5444" x="765.4253" y="1367.7217">Submit new offer</text><polygon fill="#555555" points="371.0894,1398.9297,361.0894,1402.9297,371.0894,1406.9297,367.0894,1402.9297" style="stroke:#555555;stroke-width:1;"/><line style="stroke:#555555;stroke-width:1;stroke-dasharray:2.0,2.0;" x1="365.0894" x2="747.4253" y1="1402.9297" y2="1402.9297"/><text fill="#000000" font-family="sans-serif" font-size="13" lengthAdjust="spacing" textLength="171.228" x="377.0894" y="1398.0732">Real-time: New offer received</text><polygon fill="#555555" points="65.793,1429.2813,55.793,1433.2813,65.793,1437.2813,61.793,1433.2813" style="stroke:#555555;stroke-width:1;"/><line style="stroke:#555555;stroke-width:1;stroke-dasharray:2.0,2.0;" x1="59.793" x2="359.0894" y1="1433.2813" y2="1433.2813"/><text fill="#000000" font-family="sans-serif" font-size="13" lengthAdjust="spacing" textLength="125.709" x="71.793" y="1428.4248">Display new offers list</text><polygon fill="#555555" points="348.0894,1459.6328,358.0894,1463.6328,348.0894,1467.6328,352.0894,1463.6328" style="stroke:#555555;stroke-width:1;"/><line style="stroke:#555555;stroke-width:1;" x1="54.793" x2="354.0894" y1="1463.6328" y2="1463.6328"/><text fill="#000000" font-family="sans-serif" font-size="13" lengthAdjust="spacing" textLength="99.7217" x="61.793" y="1458.7764">Select new nurse</text><polygon fill="#555555" points="593.1973,1489.9844,603.1973,1493.9844,593.1973,1497.9844,597.1973,1493.9844" style="stroke:#555555;stroke-width:1;"/><line style="stroke:#555555;stroke-width:1;" x1="360.0894" x2="599.1973" y1="1493.9844" y2="1493.9844"/><text fill="#000000" font-family="sans-serif" font-size="13" lengthAdjust="spacing" textLength="221.1079" x="367.0894" y="1489.1279">POST /api/v1/requests/{id}/select-offer</text><polygon fill="#555555" points="736.4253,1520.3359,746.4253,1524.3359,736.4253,1528.3359,740.4253,1524.3359" style="stroke:#555555;stroke-width:1;"/><line style="stroke:#555555;stroke-width:1;" x1="605.1973" x2="742.4253" y1="1524.3359" y2="1524.3359"/><text fill="#000000" font-family="sans-serif" font-size="13" lengthAdjust="spacing" textLength="102.6099" x="612.1973" y="1519.4795">Assign new nurse</text><rect fill="#EEEEEE" height="3" style="stroke:#EEEEEE;stroke-width:1;" width="2016.6265" x="0" y="1553.5117"/><line style="stroke:#000000;stroke-width:1;" x1="0" x2="2016.6265" y1="1553.5117" y2="1553.5117"/><line style="stroke:#000000;stroke-width:1;" x1="0" x2="2016.6265" y1="1556.5117" y2="1556.5117"/><rect fill="#EEEEEE" height="24.3516" style="stroke:#000000;stroke-width:2;" width="112.9727" x="951.8269" y="1542.3359"/><text fill="#000000" font-family="sans-serif" font-size="13" font-weight="bold" lengthAdjust="spacing" textLength="95.3608" x="957.8269" y="1559.8311">Alternate Paths</text><path d="M10,1583.6875 L70.1709,1583.6875 L70.1709,1592.0391 L60.1709,1602.0391 L10,1602.0391 L10,1583.6875 " fill="#EEEEEE" style="stroke:#000000;stroke-width:1.5;"/><rect fill="none" height="380.2188" style="stroke:#000000;stroke-width:1.5;" width="1606.436" x="10" y="1583.6875"/><text fill="#000000" font-family="sans-serif" font-size="13" font-weight="bold" lengthAdjust="spacing" textLength="15.1709" x="25" y="1598.1826">alt</text><text fill="#000000" font-family="sans-serif" font-size="11" font-weight="bold" lengthAdjust="spacing" textLength="113.7007" x="85.1709" y="1597.1064">[No Nurses Available]</text><line style="stroke:#555555;stroke-width:1;" x1="748.4253" x2="790.4253" y1="1624.3906" y2="1624.3906"/><line style="stroke:#555555;stroke-width:1;" x1="790.4253" x2="790.4253" y1="1624.3906" y2="1637.3906"/><line style="stroke:#555555;stroke-width:1;" x1="749.4253" x2="790.4253" y1="1637.3906" y2="1637.3906"/><polygon fill="#555555" points="759.4253,1633.3906,749.4253,1637.3906,759.4253,1641.3906,755.4253,1637.3906" style="stroke:#555555;stroke-width:1;"/><text fill="#000000" font-family="sans-serif" font-size="13" lengthAdjust="spacing" textLength="170.5171" x="755.4253" y="1619.5342">Timeout &#8212; no offers received</text><polygon fill="#555555" points="1012.0059,1663.7422,1022.0059,1667.7422,1012.0059,1671.7422,1016.0059,1667.7422" style="stroke:#555555;stroke-width:1;"/><line style="stroke:#555555;stroke-width:1;" x1="748.4253" x2="1018.0059" y1="1667.7422" y2="1667.7422"/><text fill="#000000" font-family="sans-serif" font-size="13" lengthAdjust="spacing" textLength="156.6475" x="755.4253" y="1662.8857">Push "No nurses available"</text><polygon fill="#555555" points="371.0894,1694.0938,361.0894,1698.0938,371.0894,1702.0938,367.0894,1698.0938" style="stroke:#555555;stroke-width:1;"/><line style="stroke:#555555;stroke-width:1;stroke-dasharray:2.0,2.0;" x1="365.0894" x2="1023.0059" y1="1698.0938" y2="1698.0938"/><text fill="#000000" font-family="sans-serif" font-size="13" lengthAdjust="spacing" textLength="195.6665" x="377.0894" y="1693.2373">"No nurses available in your area"</text><polygon fill="#555555" points="65.793,1724.4453,55.793,1728.4453,65.793,1732.4453,61.793,1728.4453" style="stroke:#555555;stroke-width:1;"/><line style="stroke:#555555;stroke-width:1;stroke-dasharray:2.0,2.0;" x1="59.793" x2="359.0894" y1="1728.4453" y2="1728.4453"/><text fill="#000000" font-family="sans-serif" font-size="13" lengthAdjust="spacing" textLength="142.3335" x="71.793" y="1723.5889">Options: Cancel or Retry</text><path d="M20,1743.4453 L80.1709,1743.4453 L80.1709,1751.7969 L70.1709,1761.7969 L20,1761.7969 L20,1743.4453 " fill="#EEEEEE" style="stroke:#000000;stroke-width:1.5;"/><rect fill="none" height="213.4609" style="stroke:#000000;stroke-width:1.5;" width="1586.436" x="20" y="1743.4453"/><text fill="#000000" font-family="sans-serif" font-size="13" font-weight="bold" lengthAdjust="spacing" textLength="15.1709" x="35" y="1757.9404">alt</text><text fill="#000000" font-family="sans-serif" font-size="11" font-weight="bold" lengthAdjust="spacing" textLength="89.2461" x="95.1709" y="1756.8643">[Patient Cancels]</text><polygon fill="#555555" points="348.0894,1780.1484,358.0894,1784.1484,348.0894,1788.1484,352.0894,1784.1484" style="stroke:#555555;stroke-width:1;"/><line style="stroke:#555555;stroke-width:1;" x1="54.793" x2="354.0894" y1="1784.1484" y2="1784.1484"/><text fill="#000000" font-family="sans-serif" font-size="13" lengthAdjust="spacing" textLength="87.439" x="61.793" y="1779.292">Cancel request</text><polygon fill="#555555" points="593.1973,1810.5,603.1973,1814.5,593.1973,1818.5,597.1973,1814.5" style="stroke:#555555;stroke-width:1;"/><line style="stroke:#555555;stroke-width:1;" x1="360.0894" x2="599.1973" y1="1814.5" y2="1814.5"/><text fill="#000000" font-family="sans-serif" font-size="13" lengthAdjust="spacing" textLength="194.3843" x="367.0894" y="1809.6436">POST /api/v1/requests/{id}/cancel</text><polygon fill="#555555" points="736.4253,1840.8516,746.4253,1844.8516,736.4253,1848.8516,740.4253,1844.8516" style="stroke:#555555;stroke-width:1;"/><line style="stroke:#555555;stroke-width:1;" x1="605.1973" x2="742.4253" y1="1844.8516" y2="1844.8516"/><text fill="#000000" font-family="sans-serif" font-size="13" lengthAdjust="spacing" textLength="87.439" x="612.1973" y="1839.9951">Cancel request</text><line style="stroke:#555555;stroke-width:1;" x1="748.4253" x2="790.4253" y1="1875.2031" y2="1875.2031"/><line style="stroke:#555555;stroke-width:1;" x1="790.4253" x2="790.4253" y1="1875.2031" y2="1888.2031"/><line style="stroke:#555555;stroke-width:1;" x1="749.4253" x2="790.4253" y1="1888.2031" y2="1888.2031"/><polygon fill="#555555" points="759.4253,1884.2031,749.4253,1888.2031,759.4253,1892.2031,755.4253,1888.2031" style="stroke:#555555;stroke-width:1;"/><text fill="#000000" font-family="sans-serif" font-size="13" lengthAdjust="spacing" textLength="237.3452" x="755.4253" y="1870.3467">Set status = CANCELLED_BY_PATIENT</text><polygon fill="#555555" points="1012.0059,1914.5547,1022.0059,1918.5547,1012.0059,1922.5547,1016.0059,1918.5547" style="stroke:#555555;stroke-width:1;"/><line style="stroke:#555555;stroke-width:1;" x1="748.4253" x2="1018.0059" y1="1918.5547" y2="1918.5547"/><text fill="#000000" font-family="sans-serif" font-size="13" lengthAdjust="spacing" textLength="211.0024" x="755.4253" y="1913.6982">Notify admin of cancellation cascade</text><polygon fill="#555555" points="1540.5815,1944.9063,1550.5815,1948.9063,1540.5815,1952.9063,1544.5815,1948.9063" style="stroke:#555555;stroke-width:1;"/><line style="stroke:#555555;stroke-width:1;stroke-dasharray:2.0,2.0;" x1="1024.0059" x2="1546.5815" y1="1948.9063" y2="1948.9063"/><text fill="#000000" font-family="sans-serif" font-size="13" lengthAdjust="spacing" textLength="260.7236" x="1031.0059" y="1944.0498">"Booking cancelled &#8212; no replacement found"</text><rect fill="#EEEEEE" height="3" style="stroke:#EEEEEE;stroke-width:1;" width="2016.6265" x="0" y="1992.082"/><line style="stroke:#000000;stroke-width:1;" x1="0" x2="2016.6265" y1="1992.082" y2="1992.082"/><line style="stroke:#000000;stroke-width:1;" x1="0" x2="2016.6265" y1="1995.082" y2="1995.082"/><rect fill="#EEEEEE" height="24.3516" style="stroke:#000000;stroke-width:2;" width="128.8101" x="943.9082" y="1980.9063"/><text fill="#000000" font-family="sans-serif" font-size="13" font-weight="bold" lengthAdjust="spacing" textLength="111.1982" x="949.9082" y="1998.4014">Admin Monitoring</text><polygon fill="#555555" points="1540.5815,2033.6094,1550.5815,2037.6094,1540.5815,2041.6094,1544.5815,2037.6094" style="stroke:#555555;stroke-width:1;"/><line style="stroke:#555555;stroke-width:1;" x1="748.4253" x2="1546.5815" y1="2037.6094" y2="2037.6094"/><text fill="#000000" font-family="sans-serif" font-size="13" lengthAdjust="spacing" textLength="197.2788" x="755.4253" y="2032.7529">Log cancellation with full audit trail</text><line style="stroke:#555555;stroke-width:1;" x1="1552.5815" x2="1594.5815" y1="2088.9883" y2="2088.9883"/><line style="stroke:#555555;stroke-width:1;" x1="1594.5815" x2="1594.5815" y1="2088.9883" y2="2101.9883"/><line style="stroke:#555555;stroke-width:1;" x1="1553.5815" x2="1594.5815" y1="2101.9883" y2="2101.9883"/><polygon fill="#555555" points="1563.5815,2097.9883,1553.5815,2101.9883,1563.5815,2105.9883,1559.5815,2101.9883" style="stroke:#555555;stroke-width:1;"/><text fill="#000000" font-family="sans-serif" font-size="13" lengthAdjust="spacing" textLength="203.7725" x="1559.5815" y="2084.1318">Update nurse cancellation statistics</text><path d="M1774.7725,2050.6094 L1774.7725,2125.6094 L2005.7725,2125.6094 L2005.7725,2060.6094 L1995.7725,2050.6094 L1774.7725,2050.6094 " fill="#FFFCE8" style="stroke:#D4A017;stroke-width:0.5;"/><path d="M1995.7725,2050.6094 L1995.7725,2060.6094 L2005.7725,2060.6094 L1995.7725,2050.6094 " fill="#FFFCE8" style="stroke:#D4A017;stroke-width:0.5;"/><text fill="#000000" font-family="sans-serif" font-size="13" lengthAdjust="spacing" textLength="93.2026" x="1780.7725" y="2069.1045">Quality tracking:</text><text fill="#000000" font-family="sans-serif" font-size="13" lengthAdjust="spacing" textLength="210.2725" x="1780.7725" y="2085.4561">- Cancellation rate tracked per nurse</text><text fill="#000000" font-family="sans-serif" font-size="13" lengthAdjust="spacing" textLength="168.0034" x="1780.7725" y="2101.8076">- If rate &gt; 15%, admin alerted</text><text fill="#000000" font-family="sans-serif" font-size="13" lengthAdjust="spacing" textLength="199.4561" x="1780.7725" y="2118.1592">- Flagged for potential deactivation</text><rect fill="#EEEEEE" height="3" style="stroke:#EEEEEE;stroke-width:1;" width="2016.6265" x="0" y="2152.1914"/><line style="stroke:#000000;stroke-width:1;" x1="0" x2="2016.6265" y1="2152.1914" y2="2152.1914"/><line style="stroke:#000000;stroke-width:1;" x1="0" x2="2016.6265" y1="2155.1914" y2="2155.1914"/><rect fill="#EEEEEE" height="24.3516" style="stroke:#000000;stroke-width:2;" width="81.8882" x="967.3691" y="2141.0156"/><text fill="#000000" font-family="sans-serif" font-size="13" font-weight="bold" lengthAdjust="spacing" textLength="64.2764" x="973.3691" y="2158.5107">Audit Trail</text><line style="stroke:#555555;stroke-width:1;" x1="748.4253" x2="790.4253" y1="2235.0977" y2="2235.0977"/><line style="stroke:#555555;stroke-width:1;" x1="790.4253" x2="790.4253" y1="2235.0977" y2="2248.0977"/><line style="stroke:#555555;stroke-width:1;" x1="749.4253" x2="790.4253" y1="2248.0977" y2="2248.0977"/><polygon fill="#555555" points="759.4253,2244.0977,749.4253,2248.0977,759.4253,2252.0977,755.4253,2248.0977" style="stroke:#555555;stroke-width:1;"/><text fill="#000000" font-family="sans-serif" font-size="13" lengthAdjust="spacing" textLength="86.0044" x="755.4253" y="2230.2412">Log audit entry</text><path d="M853.0044,2180.3672 L853.0044,2288.3672 L1032.0044,2288.3672 L1032.0044,2190.3672 L1022.0044,2180.3672 L853.0044,2180.3672 " fill="#FFFCE8" style="stroke:#D4A017;stroke-width:0.5;"/><path d="M1022.0044,2180.3672 L1022.0044,2190.3672 L1032.0044,2190.3672 L1022.0044,2180.3672 " fill="#FFFCE8" style="stroke:#D4A017;stroke-width:0.5;"/><text fill="#000000" font-family="sans-serif" font-size="13" lengthAdjust="spacing" textLength="107.6753" x="859.0044" y="2198.8623">Audit log captures:</text><text fill="#000000" font-family="sans-serif" font-size="13" lengthAdjust="spacing" textLength="105.479" x="859.0044" y="2215.2139">- Original nurse ID</text><text fill="#000000" font-family="sans-serif" font-size="13" lengthAdjust="spacing" textLength="122.8462" x="859.0044" y="2231.5654">- Cancellation reason</text><text fill="#000000" font-family="sans-serif" font-size="13" lengthAdjust="spacing" textLength="158.9517" x="859.0044" y="2247.917">- Timestamp of cancellation</text><text fill="#000000" font-family="sans-serif" font-size="13" lengthAdjust="spacing" textLength="147.3799" x="859.0044" y="2264.2686">- New assignment (if any)</text><text fill="#000000" font-family="sans-serif" font-size="13" lengthAdjust="spacing" textLength="132.9326" x="859.0044" y="2280.6201">- Time to reassignment</text><!--SRC=[ZLRhQXj75Fw_Jt5GQN7SoAvpeKNWWAoB4LKaLP8J0WKntXr9GrOxcvbPEqe8D6rJtFxk6nIQ9fI4q8IIDrdzpPFqp6LNkxQIsY4sx7pdE_TlHjvdKKm4MS0nyU_F14-YeC53Bk2pTaF_ysIEmD-A-ImcaJhW8g320Pitwb_jVRqPsEQHkYHin1vHsBjU04Zw8A6HJ-k-ukBJBalGJpabGl1JTtZJ_6nWwR8f_e_evNpcw0iLRBSRhMysM1pmXvUZHk2daYdo_Q_pY2jwITI6s3p5L4XXUxkN24cXGT1j61B5U0HVm90IATaiMj18RM_3Xnz-Xv6B3PgCp93PyuZk3LG6Q8Im2X09W_hOAun1VWZrE7Q0mQ2Cg0ywS4WKFILBWpYyMpu_u1oJcNqVZQWuOJure8DlHsLKZoisPRw9lmpjzSTPf2PL-_5eUCxUL26BidSnoc318XYGY8O6KM_U7dZU_ZuC1AqsU1GmxRa6EA_iX88B6lRtFKzt00IRpLNU7iW1Kc7gS4odN53m2qse8KWV9X8-d9t1Ounur9eq-hrsPtYxrRmAhTvas3yQjwv2VJZit6ardtWq2ao_JM0seqw4WQ4BMUwmZWiPeNhBv5g3COcXOY5PR1LF7wqXepa_BOK80gS4_qWQKbz_-4YkGvmS9cXm0QzptDk1zD_qUVec_HFIj-chzDtgDzWQK8584W9TK373iLjUGUmrn3vV_Rnwblw3Vv-cBo3z8_qhVP- -XjMprI_PuSlLsUh7z3qQuCzMbzkf0CKvJ8dGHDSj4NfxZNYaUMKY-1lIbpe27OEpxYTAie32OWaofZuZ8Njaw3JDZHtqcxvT_OHKBs3r52Et8QpEaEyTVdsUldH4Oq4Y6NEXR31CoeHgZfixEebNwPlLh-XDpQamspOLb8AY3zMLGbTB7HkPAcOr_H9y7asPMEHDExnRWq5_D8PT4hFTaxtTI0_4xh5jhjnzp88dkxQTtk5TRO5BXIQ2-rJAKgCz3uzon1siGM2criqmMwEFKLAEbs1SbOn6L6NZl0-DUg_HwdPRpSd1lOaPx39MdL-6YStouoWQJD3jldKyOS45tsiSKHh7JqkGJkGBgiNECfJ7t4TzLLJOTNTwLjGRiqsE3TK6QvZ8ELJkyKGukZcHwmXmh_hZ77kanrj1h4sY0gbdKGWRc7OxXSfPx9Gm51xiG4HF8HRy12TLLBo1cG1ZETwqjYIaGk74LDhEd8IONaIqSicTdPsAoRHu1K0xH992cgPeZJdrxmF7TMTwLPtewcsdKfMGGogf7bLpWei8WrQlsUaTJlhjTciuAc5R3_qm2V9CJNeczQdW2vFfiU0ay0dwo0ox_KODT3PuJaGsW1Asg27J75dXSFyHRSfZt7KPHiIdG4u8i_DhRJqlv3o6DjuRbFZpy-TQmWiT7-abDJsiz312LmEePqOLn6VzjEixfDKy3rqHdPZpZ5nMmV5JVpf5AOJ6qaVFkW7bvXflt6A8NWU-C1iPsJRYRbrRhq5ol63AE38MjdZvW66_mwfY2rg3d1HRvbESYk2SsoQJSKYMQou98TFzm5F86Pr2vPavaWtIv2R3YPAz7weso88qrSqy5lXqaUfkTgbUpRaqDS9vnWMrDw1SDs7TCqCtnbnveimYHJpB8y-ut62xqaZg9ejiwcosgHTHs15OQZt09X5jKgvdFzQBAMlkaiQTmdOeiVGGgPF9LCSUItEbb4hjx5mTtVcbYkrk06rHAFK6likfEKRLQVN6HGjJFwENIo3c6ONhLXPO8dqIK6EKrL8_i6hvw- -Sxc6x1CK9zArcJ_K3M5TLRqwsFVR5TflZ0mWboht5N4YMlCjdvJXEcPh3D0b382WQk9O2s-TfyDheA3PttuPhGXS4bu3vyYFleEyIl3dLKjFwEYdz_AcMtsL2Svjpp3Ic8XURAdIczlGMxDty_Aghf95oCwnLr6Wocw4PFYKXHlyHFln2252zKDZjdL9w8DPDZcETumLfrwMnDK0QdCED-LY2q5GnLecWqcRKpsu4MwHESqEUzZxNt_KQOkaMyVcnCATQYWhtq1P3fOxCOz1QQkaKXPjgdU9_]--></g></svg>